# xmcd
#
# Track frame offsets:
#	150
#	12138
#	28027
#	37922
#	51064
#
# Disc length: 957 seconds
# Revision: 0
# Processed by: cddbd v1.5.2PL0 Copyright (c) Steve Scherf et al.
# Submitted via: dBpowerAMP V12.0
#
DISCID=2f03bb05
DTITLE=The Cherry Pickers - The Cherry Pickers
DYEAR=2016
DGENRE=Country
TTITLE0=Over You
TTITLE1=June Apple
TTITLE2=Pucker Up
TTITLE3=Here to Tennessee
TTITLE4=Back to the Barrooms
EXTD=
EXTT0=
EXTT1=
EXTT2=
EXTT3=
EXTT4=
PLAYORDER=
